REM DIRINDEX 1\2,1\3,1\4,1\5\6,1\5\7,1\8
REM DIRNAME folder01,folder02,folder03,folder04,folder05,folder06,folder07,folder08
TITLE ""
FILE "081 【081】Unit5 (0913 procedure_0924 hinge).mp3" MP3
  TRACK 01 AUDIO
    TITLE "0:"
    INDEX 01 00:00:00
  TRACK 02 AUDIO
    TITLE "2:cjc115_3180"
    INDEX 01 00:00:07
  TRACK 03 AUDIO
    TITLE "0:"
    INDEX 01 00:01:30
  TRACK 04 AUDIO
    TITLE "3:cjc115_3181"
    INDEX 01 00:01:38
  TRACK 05 AUDIO
    TITLE "0:"
    INDEX 01 00:03:53
  TRACK 06 AUDIO
    TITLE "4:cjc115_3182"
    INDEX 01 00:03:55
  TRACK 07 AUDIO
    TITLE "0:"
    INDEX 01 00:07:09
  TRACK 08 AUDIO
    TITLE "2:cjc115_3183"
    INDEX 01 00:08:13
  TRACK 09 AUDIO
    TITLE "0:"
    INDEX 01 00:09:30
  TRACK 10 AUDIO
    TITLE "3:cjc115_3184"
    INDEX 01 00:09:34
  TRACK 11 AUDIO
    TITLE "0:"
    INDEX 01 00:11:44
  TRACK 12 AUDIO
    TITLE "4:cjc115_3185"
    INDEX 01 00:11:52
  TRACK 13 AUDIO
    TITLE "0:"
    INDEX 01 00:14:23
  TRACK 14 AUDIO
    TITLE "2:cjc115_3186"
    INDEX 01 00:15:30
  TRACK 15 AUDIO
    TITLE "0:"
    INDEX 01 00:16:55
  TRACK 16 AUDIO
    TITLE "3:cjc115_3187"
    INDEX 01 00:16:65
  TRACK 17 AUDIO
    TITLE "0:"
    INDEX 01 00:17:57
  TRACK 18 AUDIO
    TITLE "4:cjc115_3188"
    INDEX 01 00:17:69
  TRACK 19 AUDIO
    TITLE "0:"
    INDEX 01 00:21:47
  TRACK 20 AUDIO
    TITLE "2:cjc115_3189"
    INDEX 01 00:22:58
  TRACK 21 AUDIO
    TITLE "0:"
    INDEX 01 00:23:59
  TRACK 22 AUDIO
    TITLE "3:cjc115_3190"
    INDEX 01 00:23:61
  TRACK 23 AUDIO
    TITLE "0:"
    INDEX 01 00:25:25
  TRACK 24 AUDIO
    TITLE "4:cjc115_3191"
    INDEX 01 00:25:35
  TRACK 25 AUDIO
    TITLE "0:"
    INDEX 01 00:30:55
  TRACK 26 AUDIO
    TITLE "2:cjc115_3192"
    INDEX 01 00:31:63
  TRACK 27 AUDIO
    TITLE "0:"
    INDEX 01 00:33:03
  TRACK 28 AUDIO
    TITLE "3:cjc115_3193"
    INDEX 01 00:33:13
  TRACK 29 AUDIO
    TITLE "0:"
    INDEX 01 00:36:13
  TRACK 30 AUDIO
    TITLE "4:cjc115_3194"
    INDEX 01 00:36:17
  TRACK 31 AUDIO
    TITLE "0:"
    INDEX 01 00:41:24
  TRACK 32 AUDIO
    TITLE "2:cjc115_3195"
    INDEX 01 00:42:39
  TRACK 33 AUDIO
    TITLE "0:"
    INDEX 01 00:43:64
  TRACK 34 AUDIO
    TITLE "3:cjc115_3196"
    INDEX 01 00:43:74
  TRACK 35 AUDIO
    TITLE "0:"
    INDEX 01 00:46:54
  TRACK 36 AUDIO
    TITLE "4:cjc115_3197"
    INDEX 01 00:46:60
  TRACK 37 AUDIO
    TITLE "0:"
    INDEX 01 00:50:72
  TRACK 38 AUDIO
    TITLE "2:cjc115_3198"
    INDEX 01 00:51:73
  TRACK 39 AUDIO
    TITLE "0:"
    INDEX 01 00:53:09
  TRACK 40 AUDIO
    TITLE "3:cjc115_3199"
    INDEX 01 00:53:15
  TRACK 41 AUDIO
    TITLE "0:"
    INDEX 01 00:54:27
  TRACK 42 AUDIO
    TITLE "4:cjc115_3200"
    INDEX 01 00:54:30
  TRACK 43 AUDIO
    TITLE "0:"
    INDEX 01 00:57:62
  TRACK 44 AUDIO
    TITLE "2:cjc115_3201"
    INDEX 01 00:58:71
  TRACK 45 AUDIO
    TITLE "0:"
    INDEX 01 01:00:15
  TRACK 46 AUDIO
    TITLE "3:cjc115_3202"
    INDEX 01 01:00:23
  TRACK 47 AUDIO
    TITLE "0:"
    INDEX 01 01:01:56
  TRACK 48 AUDIO
    TITLE "4:cjc115_3203"
    INDEX 01 01:01:64
  TRACK 49 AUDIO
    TITLE "0:"
    INDEX 01 01:04:70
  TRACK 50 AUDIO
    TITLE "2:cjc115_3204"
    INDEX 01 01:06:04
  TRACK 51 AUDIO
    TITLE "0:"
    INDEX 01 01:07:27
  TRACK 52 AUDIO
    TITLE "3:cjc115_3205"
    INDEX 01 01:07:37
  TRACK 53 AUDIO
    TITLE "0:"
    INDEX 01 01:09:48
  TRACK 54 AUDIO
    TITLE "4:cjc115_3206"
    INDEX 01 01:09:56
  TRACK 55 AUDIO
    TITLE "0:"
    INDEX 01 01:14:00
  TRACK 56 AUDIO
    TITLE "2:cjc115_3207"
    INDEX 01 01:15:03
  TRACK 57 AUDIO
    TITLE "0:"
    INDEX 01 01:16:20
  TRACK 58 AUDIO
    TITLE "3:cjc115_3208"
    INDEX 01 01:16:26
  TRACK 59 AUDIO
    TITLE "0:"
    INDEX 01 01:17:55
  TRACK 60 AUDIO
    TITLE "4:cjc115_3209"
    INDEX 01 01:17:61
  TRACK 61 AUDIO
    TITLE "0:"
    INDEX 01 01:21:08
  TRACK 62 AUDIO
    TITLE "2:cjc115_3210"
    INDEX 01 01:22:15
  TRACK 63 AUDIO
    TITLE "0:"
    INDEX 01 01:23:34
  TRACK 64 AUDIO
    TITLE "3:cjc115_3211"
    INDEX 01 01:23:40
  TRACK 65 AUDIO
    TITLE "0:"
    INDEX 01 01:25:29
  TRACK 66 AUDIO
    TITLE "4:cjc115_3212"
    INDEX 01 01:25:35
  TRACK 67 AUDIO
    TITLE "0:"
    INDEX 01 01:29:60
  TRACK 68 AUDIO
    TITLE "2:cjc115_3213"
    INDEX 01 01:30:67
  TRACK 69 AUDIO
    TITLE "0:"
    INDEX 01 01:32:00
  TRACK 70 AUDIO
    TITLE "3:cjc115_3214"
    INDEX 01 01:32:12
  TRACK 71 AUDIO
    TITLE "0:"
    INDEX 01 01:33:25
  TRACK 72 AUDIO
    TITLE "4:cjc115_3215"
    INDEX 01 01:33:33
  TRACK 73 AUDIO
    TITLE "0:"
    INDEX 01 01:37:11
